<svg xmlns="http://www.w3.org/2000/svg" viewBox="0 0 820 440" width="100%" height="100%">
    <defs>
        <filter id="soft-shadow" x="-10%" y="-10%" width="120%" height="120%">
            <feDropShadow dx="0" dy="4" stdDeviation="6" flood-color="#6366f1" flood-opacity="0.12" />
        </filter>

        <marker id="arrowhead" viewBox="0 0 10 10" refX="8" refY="5" markerWidth="6"
            markerHeight="6" orient="auto-start-reverse">
            <path d="M 1 2 L 8 5 L 1 8 Z" fill="#6366f1" stroke="#6366f1" stroke-width="1"
                stroke-linejoin="round" />
        </marker>
    </defs>

    <rect width="100%" height="100%" fill="#f8fafc" rx="16" />

    <g opacity="0.25">
        <path
            d="M 0 40 L 820 40 M 0 80 L 820 80 M 0 120 L 820 120 M 0 160 L 820 160 M 0 200 L 820 200 M 0 240 L 820 240 M 0 280 L 820 280 M 0 320 L 820 320 M 0 360 L 820 360 M 0 400 L 820 400"
            stroke="#cbd5e1" stroke-width="1" />
        <path
            d="M 40 0 L 40 440 M 80 0 L 80 440 M 120 0 L 120 440 M 160 0 L 160 440 M 200 0 L 200 440 M 240 0 L 240 440 M 280 0 L 280 440 M 320 0 L 320 440 M 360 0 L 360 440 M 400 0 L 400 440 M 440 0 L 440 440 M 480 0 L 480 440 M 520 0 L 520 440 M 560 0 L 560 440 M 600 0 L 600 440 M 640 0 L 640 440 M 680 0 L 680 440 M 720 0 L 720 440 M 760 0 L 760 440 M 800 0 L 800 440"
            stroke="#cbd5e1" stroke-width="1" />
    </g>

    <path d="M 170 302 L 596 128" stroke="#6366f1" stroke-width="3" stroke-linecap="round"
        marker-end="url(#arrowhead)" />

    <rect x="100" y="304" width="65" height="40" rx="8" fill="#eeebff" stroke="#6366f1"
        stroke-width="2" filter="url(#soft-shadow)" />

    <g font-family="JetBrains Mono, Fira Code, Menlo, Monaco, Consolas, monospace" font-size="20"
        font-weight="500">
        <text x="110" y="332">
            <tspan fill="#9333ea" font-weight="bold">Info</tspan>
            <tspan fill="#2563eb"> get_info(</tspan>
        </text>

        <text x="282" y="332">
            <tspan fill="#0284c7">string</tspan>
            <tspan fill="#1e293b">id1</tspan>
            <tspan fill="#64748b">, </tspan>
            <tspan fill="#0284c7">string</tspan>
            <tspan fill="#1e293b">id2</tspan>
        </text>

        <text x="568" y="332" fill="#2563eb">);</text>
    </g>

    <g font-family="JetBrains Mono, Fira Code, Menlo, Monaco, Consolas, monospace" font-size="20"
        font-weight="500">
        <rect x="612" y="90" width="180" height="150" fill="#f1f5f9" stroke="#cbd5e1"
            stroke-width="2" rx="8">
        </rect>

        <text x="620" y="115" fill="#9333ea">Info</text>
        <text x="680" y="115" fill="#475569">{</text>

        <text x="650" y="170">
            <tspan fill="#b45309">...</tspan>
        </text>

        <text x="620" y="228" fill="#475569">}</text>
    </g>
</svg>
